<?xml version="1.0" encoding="UTF-8"?>
<svg id="Layer_1" xmlns="http://www.w3.org/2000/svg" version="1.1" xmlns:serif="http://www.serif.com/" viewBox="0 0 456 456">
  <!-- Generator: Adobe Illustrator 29.7.1, SVG Export Plug-In . SVG Version: 2.1.1 Build 8)  -->
  <defs>
    <style>
      .st0 {
        fill: #fff;
      }

      .st1 {
        isolation: isolate;
      }
    </style>
  </defs>
  <path class="st0" d="M107.7,209.5c-3.7-.8-5.2-5.5-4.1-9s16.2-24.8,18.1-26.9,3.4-2.8,6.9-3.1c15.5-1.4,33.7,1.7,49,0,2.3-.3,4.9-.7,6.5-2.5l-4.4-2.5c-31.4-1.9-66.1,2.7-97.1,0-6.3-.5-8.1-3.6-5.9-10s18.3-26.8,21-30,3.1-3.7,5.4-4.6l82.6-.5c19.3,2.5,35.2,8.1,42.5,27.5.4,1,1.3,8.6,2.9,7.6l21.6-31.9,4.2-2.8,110.9.6c5.8,1.9,11.8,4.4,14.9,10.1,7.7,14.4.6,24.1-7.6,35.5-22,30.7-48.7,59.3-71,90l-3.7,2.3c-14.5-1.2-33.8,2.3-47.7.2s-5.8-3.4-5.6-7.3l70-86.6h-83.5c-2,0-2-2.9-3.5-3,.4,9.4-3.5,18.8-10,25.5,17.6,13.2,16.3,47.1-.5,60.5-8.9,7.2-20.9,9.6-32,11l-113.6-.5c-4.1-1.8-4.7-5.3-3.2-9.3s19.6-29.2,22.2-31.8,4.1-3.5,5.5-3.5h84c1.9,0,1.9-5,0-5h-75,.2ZM82.2,159.5h101.5c7.8,0,10.5,15.8-3,17-16.8,1.5-35.8-1.2-52.8,0l-18.7,27h75.5c2.9,0,6,5.5,6,8.5,0,7.9-7.6,9-13.9,9.5-25.1,2-52.5-1.7-77.9.1l-22.7,31.8h109.5c7.2,0,21.8-4,27.8-8.2,18.7-12.7,17.4-49.3-5.3-57.3,20.5-8.5,20.5-39.4,4-52-22.7-17.4-77.7-6.2-105.5-9.5l-2.5,1.5-22,31.5h0ZM253.2,253.5h45.5l75.3-95.7c10.7-14.8,5.5-29.6-13.3-31.3-31.9-2.9-67.8,2.2-100,0l-2.9,1.1-21.5,32,96-.5-79,94.5h-.1Z"/>
  <g class="st1">
    <g class="st1">
      <path class="st0" d="M137.3,304.3c0,7.7-5.5,13.6-24.6,13.6h-53.2v-28.3h53.6c2.7,0,5.2-.8,5.2-3.1s-2.6-3-5.2-3h-53.6l12.7-12.1h40.1c14.5,0,23.8,4.3,23.8,12.9s-4.1,8.6-8.2,9.7c5.2,1.2,9.5,4.8,9.5,10.4ZM78.3,299.5v6.4h34.5c4.1,0,5.8-1.1,5.8-3.3s-1.7-3.1-5.8-3.1h-34.5Z"/>
      <path class="st0" d="M166.9,317.9l11.3-12h15.2c3.6,0,7.9,0,10.8.1-1.6-1.7-4.2-4.5-6.2-6.8l-10.9-12.3-28.4,30.9h-22.2l38.8-42.1c2.5-2.7,6.2-5.2,12.1-5.2s9.3,2.3,11.9,5.2l37.8,42.1h-70.4Z"/>
      <path class="st0" d="M300.1,289.9c14.7,0,22.7,4.2,22.7,12.7s-7.5,15.2-26,15.2h-56.4l12-12h45.8c4.4,0,6.4-1,6.4-3.4s-2-3.3-6.4-3.3h-32.9c-15.6,0-22.7-5.4-22.7-13.4s7.6-14.5,26-14.5h52.6l-12,12.1h-42c-4.3,0-6.4.8-6.4,3.2s2.1,3.3,6.4,3.3h32.9Z"/>
      <path class="st0" d="M401.5,305.9l-12,12h-58.3v-46.6h70.1l-12.1,12.1h-39.2v5.6h48l-10.8,10.6h-37.2v6.3h51.5Z"/>
    </g>
  </g>
</svg>