<?xml version="1.0" encoding="UTF-8"?>
<svg id="Layer_1" data-name="Layer 1" xmlns="http://www.w3.org/2000/svg" viewBox="0 0 1080 1080">
  <defs>
    <style>
      .cls-1 {
        fill: #fff;
      }
    </style>
  </defs>
  <path class="cls-1" d="M329.35,586.44h130.9c12.86,0,18.29-4.57,18.29-13.43,0-8.29-5.43-12.86-18.29-12.86h-114.61l30.58-40.87h84.89c8.58,0,16.58-3.14,16.58-12.86s-8.29-12.29-16.58-12.29h-160.05l38.01-49.73h119.47c45.73,0,75.17,17.72,75.17,52.88,0,22.58-12.86,35.15-26.01,40.01,16.58,4.86,30.01,19.72,30.01,42.59,0,31.73-17.43,55.73-77.74,55.73h-168.34l37.73-49.16Z"/>
  <path class="cls-1" d="M656.33,635.6h-74.6l93.75-105.46c19.72-22.29,27.72-30.87,35.16-37.44-10.86.86-24.01,1.43-54.02,1.43h-103.75l37.73-49.73h165.2c21.72,0,32.58,11.72,32.58,25.44,0,6.86-2.57,14-9.43,22.01l-122.61,143.76Z"/>
</svg>